<svg height="165" viewBox="0 0 103 165" width="103" xmlns="http://www.w3.org/2000/svg"><path d="m308.3 65 .1 1.2c-.2 16.7.2 11.6-.7 29.8-.5 11.8-2.4 21.9-7.3 30.6-9.6 16.3-24.7 26.6-36.8 26.6-5.7 0-17-7.6-18.9-10.9-.2-.2-.2-2.8-.2-3 .7-3.5 3.3-11.5 4.9-14.1 6.6 4.7 21.5 14.9 26 14.9 2.6 0 4.9-.5 7.1-3 2.8-3.5 3.6-8.2 3.8-20.2.5-24.3.4-80-.1-92.2v-1.8s-.1-1-.1-1c-7.4-13.1-12.6-21.9-12.6-21.9s-51.5 85-51.5 113.4c0 28.5 23.1 51.5 51.5 51.5 28.5 0 51.5-23.1 51.5-51.5 0-10.7-7.3-29.5-16.4-48.7z" fill="#007079" fill-rule="evenodd" transform="translate(-222)"/></svg>